{
  "asset": {
    "generator": "Khronos glTF Blender I/O v1.6.16",
    "version": "2.0"
  },
  "scene": 0,
  "scenes": [
    {
      "name": "Scene",
      "nodes": [
        0
      ]
    }
  ],
  "nodes": [
    {
      "mesh": 0,
      "name": "measuring_tape_01"
    }
  ],
  "materials": [
    {
      "doubleSided": true,
      "name": "measuring_tape_01",
      "normalTexture": {
        "index": 0
      },
      "pbrMetallicRoughness": {
        "baseColorTexture": {
          "index": 1
        },
        "metallicRoughnessTexture": {
          "index": 2
        }
      }
    }
  ],
  "meshes": [
    {
      "name": "Plane.001",
      "primitives": [
        {
          "attributes": {
            "POSITION": 0,
            "NORMAL": 1,
            "TEXCOORD_0": 2
          },
          "indices": 3,
          "material": 0
        }
      ]
    }
  ],
  "textures": [
    {
      "sampler": 0,
      "source": 0
    },
    {
      "sampler": 0,
      "source": 1
    },
    {
      "sampler": 0,
      "source": 2
    }
  ],
  "images": [
    {
      "mimeType": "image/jpeg",
      "name": "measuring_tape_01_nor_gl",
      "uri": "textures/measuring_tape_01_nor_gl_1k.jpg"
    },
    {
      "mimeType": "image/jpeg",
      "name": "measuring_tape_01_diff",
      "uri": "textures/measuring_tape_01_diff_1k.jpg"
    },
    {
      "mimeType": "image/jpeg",
      "name": "measuring_tape_01_metal-measuring_tape_01_rough",
      "uri": "textures/measuring_tape_01_arm_1k.jpg"
    }
  ],
  "accessors": [
    {
      "bufferView": 0,
      "componentType": 5126,
      "count": 2421,
      "max": [
        0.02298961952328682,
        0.07364201545715332,
        0.04250630736351013
      ],
      "min": [
        -0.01757664605975151,
        0.000228142918786034,
        -0.12691232562065125
      ],
      "type": "VEC3"
    },
    {
      "bufferView": 1,
      "componentType": 5126,
      "count": 2421,
      "type": "VEC3"
    },
    {
      "bufferView": 2,
      "componentType": 5126,
      "count": 2421,
      "type": "VEC2"
    },
    {
      "bufferView": 3,
      "componentType": 5123,
      "count": 8604,
      "type": "SCALAR"
    }
  ],
  "bufferViews": [
    {
      "buffer": 0,
      "byteLength": 29052,
      "byteOffset": 0
    },
    {
      "buffer": 0,
      "byteLength": 29052,
      "byteOffset": 29052
    },
    {
      "buffer": 0,
      "byteLength": 19368,
      "byteOffset": 58104
    },
    {
      "buffer": 0,
      "byteLength": 17208,
      "byteOffset": 77472
    }
  ],
  "samplers": [
    {
      "magFilter": 9729,
      "minFilter": 9987
    }
  ],
  "buffers": [
    {
      "byteLength": 94680,
      "uri": "measuring_tape_01.bin"
    }
  ]
}